#!OML:ASF Y:\EmotionMaleHayes\Project 1\Capture day 1\Session 1\Male1.ASF
:FULLY-SPECIFIED
:DEGREES
1992
root -1.23162 16.2736 18.1835 877.663 -80.3099 202.504
lowerback 5.71234 4.57192 4.79104
upperback 1.74781 6.30299 -0.888149
thorax -0.764654 3.15086 -3.94764
lowerneck -21.1094 0.406292 3.32919
upperneck 29.8966 -1.67882 1.55667
head 13.6699 -0.293514 -0.291249
rclavicle 1.66979e-014 -3.18055e-015
rhumerus -15.4044 15.5693 -87.9208
rradius 46.0546
rwrist -1.39403
rhand -14.3483 -30.6546
rfingers 7.12502
rthumb 11.7933 -60.3026
lclavicle 1.66979e-014 -3.18055e-015
lhumerus -41.9343 9.42641 75.1529
lradius 17.3102
lwrist -27.7952
lhand -10.7566 -23.7678
lfingers 7.12502
lthumb 15.255 5.64967
rfemur 24.1832 3.73492 26.5242
rtibia 17.4337
rfoot -19.6474 3.43631
rtoes -16.06
lfemur -23.5765 5.34082 -15.296
ltibia 17.6632
lfoot -4.23643 7.59039
ltoes 5.51567
1993
root -1.42518 16.2929 18.2063 883.986 -80.7203 196.136
lowerback 5.34125 4.59161 3.60413
upperback 1.89144 6.24148 -1.26302
thorax -0.50337 3.12645 -3.63479
lowerneck -21.3554 0.307154 3.0126
upperneck 29.8653 -1.84299 1.94639
head 13.716 -0.342336 -0.11159
rclavicle 1.50579e-014 -2.18663e-014
rhumerus -16.0501 15.2476 -88.1479
rradius 45.8037
rwrist -1.37418
rhand -14.4284 -30.4731
rfingers 7.12502
rthumb 11.716 -60.1255
lclavicle 1.50579e-014 -2.18663e-014
lhumerus -41.1583 10.1303 74.7489
lradius 16.6617
lwrist -28.9833
lhand -10.8083 -23.7784
lfingers 7.12502
lthumb 15.2052 5.64285
rfemur 23.82 3.74652 24.8242
rtibia 18.9792
rfoot -18.3534 4.98419
rtoes -15.7382
lfemur -23.3265 4.42123 -16.6861
ltibia 17.8679
lfoot -3.58534 7.9093
ltoes 7.37533
1994
root -1.61057 16.314 18.2083 883.52 -80.5592 196.195
lowerback 5.65695 4.60025 3.36103
upperback 1.97758 6.24479 -1.23861
thorax -0.618491 3.12357 -3.5012
lowerneck -21.708 0.243174 2.763
upperneck 30.155 -1.98056 2.24129
head 13.923 -0.382617 0.0232861
rclavicle 3.17559e-014 -1.59028e-014
rhumerus -17.0072 14.9131 -88.4914
rradius 45.5098
rwrist -1.27048
rhand -14.4729 -30.5804
rfingers 7.12502
rthumb 11.6731 -60.2352
lclavicle 3.17559e-014 -1.59028e-014
lhumerus -40.5207 10.9562 74.2485
lradius 15.9654
lwrist -30.3334
lhand -10.8422 -23.7247
lfingers 7.12502
lthumb 15.1725 5.69908
rfemur 23.6398 4.24319 25.0235
rtibia 20.8025
rfoot -16.4568 5.30026
rtoes -13.6775
lfemur -22.641 5.56666 -16.8758
ltibia 19.3536
lfoot -3.80434 7.05991
ltoes 3.78495
1995
root -1.79347 16.3354 18.2212 886.031 -80.6972 193.439
lowerback 5.8368 4.53809 2.73933
upperback 1.96178 6.12746 -1.40691
thorax -0.792026 3.05816 -3.34445
lowerneck -21.5607 0.228211 2.73278
upperneck 30.1742 -1.98249 2.2162
head 13.8992 -0.394235 0.0177113
rclavicle -3.77691e-015 3.57812e-015
rhumerus -18.167 14.5387 -88.8979
rradius 45.2903
rwrist -1.0777
rhand -14.518 -30.9371
rfingers 7.12502
rthumb 11.6296 -60.5943
lclavicle -3.77691e-015 3.57812e-015
lhumerus -40.1812 11.7652 73.734
lradius 15.8333
lwrist -31.7434
lhand -10.4112 -23.4857
lfingers 7.12502
lthumb 15.5876 5.90617
rfemur 23.0948 4.23176 24.1817
rtibia 22.9052
rfoot -14.161 5.60477
rtoes -11.1499
lfemur -21.8775 5.67793 -17.617
ltibia 19.5513
lfoot -3.58379 7.3908
ltoes 0.273949
1996
root -1.98244 16.3592 18.2418 889.771 -80.9424 189.498
lowerback 5.87398 4.46884 2.0696
upperback 1.93681 5.99083 -1.67935
thorax -0.88895 2.98537 -3.25316
lowerneck -21.4972 0.0192076 2.47774
upperneck 30.0366 -2.30578 2.57349
head 13.8354 -0.516388 0.145442
rclavicle 5.71506e-015 -1.19271e-015
rhumerus -19.3593 14.0619 -89.3329
rradius 44.9487
rwrist -0.754579
rhand -14.827 -30.871
rfingers 7.12502
rthumb 11.3316 -60.5448
lclavicle 5.71506e-015 -1.19271e-015
lhumerus -39.826 12.5601 73.1871
lradius 15.706
lwrist -33.1171
lhand -10.2225 -23.4937
lfingers 7.12502
lthumb 15.7693 5.88396
rfemur 22.3568 3.90359 22.8317
rtibia 25.2413
rfoot -11.8568 6.2188
rtoes -8.75621
lfemur -21.0606 5.45052 -18.712
ltibia 19.6656
lfoot -3.64055 7.41615
ltoes -0.365183
